# xmcd
#
# Track frame offsets: 
#        150
#        19474
#        38894
#        63830
#        83828
#        114096
#        160171
#        184723
#        199519
#        217289
#
# Disc length: 3042 seconds
#
# Revision: 1
# Processed by: cddbd v1.5.2PL0 Copyright (c) Steve Scherf et al.
# Submitted via: ExactAudioCopyFreeDBPlugin 1.0
#
DISCID=820be00a
DTITLE=Various Artist - We Three Kings of Blues Guitar
DYEAR=2013
DGENRE=Blues
TTITLE0=Freddie King - Going Down
TTITLE1=Freddie King - Woman Across the River
TTITLE2=Freddie King - Key to the Highway
TTITLE3=Freddie King - Hide Away
TTITLE4=Albert King - Blues Power
TTITLE5=Albert King - Blues at Sunrise
TTITLE6=Albert King - Born Under a Bad Sign
TTITLE7=Earl King - Street Parade
TTITLE8=Earl King - Trick Bag
TTITLE9=Earl King - Those Lonely, Lonely Nights
EXTD=
EXTT0=
EXTT1=
EXTT2=
EXTT3=
EXTT4=
EXTT5=
EXTT6=
EXTT7=
EXTT8=
EXTT9=
PLAYORDER=
